<?xml version="1.0" encoding="UTF-8"?>
<svg version="1.1" xmlns="http://www.w3.org/2000/svg" width="1080" height="1080">
<path d="M0 0 C356.4 0 712.8 0 1080 0 C1080 356.4 1080 712.8 1080 1080 C723.6 1080 367.2 1080 0 1080 C0 723.6 0 367.2 0 0 Z " fill="#FEFEFE" transform="translate(0,0)"/>
<path d="M0 0 C94.71 0 189.42 0 287 0 C288.0056587 4.0226348 288.28574939 7.78949467 288.46484375 11.90234375 C288.52124275 13.07515144 288.52124275 13.07515144 288.57878113 14.27165222 C288.6595231 15.95261174 288.73861513 17.63365117 288.81622314 19.3147583 C289.02073894 23.73763101 289.23742196 28.15988489 289.45703125 32.58203125 C289.52304535 33.91152802 289.52304535 33.91152802 289.59039307 35.2678833 C290.05229314 44.36335919 290.68131184 53.44358743 291.39038086 62.52319336 C291.95294274 70.02911714 292.09682317 77.4739197 292 85 C290.02 85 288.04 85 286 85 C285.7666394 84.04915527 285.7666394 84.04915527 285.52856445 83.07910156 C281.47350359 66.12475494 281.47350359 66.12475494 275 50 C274.30777344 48.59427734 274.30777344 48.59427734 273.6015625 47.16015625 C265.8663442 32.24223524 255.51400108 22.64256801 239.515625 17.05859375 C235.53021313 15.85854195 231.54024456 14.74914648 227.5 13.75 C226.52305176 13.50479614 226.52305176 13.50479614 225.52636719 13.25463867 C207.4077031 9.0974562 185.52622421 10.46121643 168 10 C168 43.99 168 77.98 168 113 C151.83 113 135.66 113 119 113 C119 79.01 119 45.02 119 10 C71.68127069 9.06550045 71.68127069 9.06550045 29 27 C28.1853125 27.59941406 27.370625 28.19882812 26.53125 28.81640625 C10.59380253 42.56491418 5.79355016 65.62102207 1 85 C-0.98 85 -2.96 85 -5 85 C-4.58415458 69.53426916 -3.96538779 54.14618741 -2.7331543 38.72241211 C-2.0839717 30.50693632 -1.63510363 22.29852851 -1.34179688 14.06274414 C-1.29442383 12.81738892 -1.29442383 12.81738892 -1.24609375 11.546875 C-1.22216553 10.83370117 -1.1982373 10.12052734 -1.17358398 9.38574219 C-0.94478412 6.24111164 -0.4458935 3.1212545 0 0 Z " fill="#040404" transform="translate(610,350)"/>
<path d="M0 0 C1.23556641 0.01740234 1.23556641 0.01740234 2.49609375 0.03515625 C3.32238281 0.04417969 4.14867187 0.05320312 5 0.0625 C5.63808594 0.07410156 6.27617187 0.08570313 6.93359375 0.09765625 C13.18295443 14.10654627 19.06697 28.24366081 24.80172729 42.46856689 C30.48412717 56.5615638 36.25146386 70.61810365 42.05859375 84.66015625 C42.66971512 86.13840378 42.66971512 86.13840378 43.29318237 87.64651489 C44.46716485 90.48587363 45.6417245 93.324993 46.81640625 96.1640625 C47.3635302 97.48755455 47.3635302 97.48755455 47.92170715 98.83778381 C49.46724935 102.57300175 51.01707857 106.30589624 52.59667969 110.02685547 C53.28552246 111.65324951 53.28552246 111.65324951 53.98828125 113.3125 C54.37226074 114.20960693 54.75624023 115.10671387 55.15185547 116.03100586 C55.93359375 118.09765625 55.93359375 118.09765625 55.93359375 120.09765625 C39.43359375 120.09765625 22.93359375 120.09765625 5.93359375 120.09765625 C2.78116534 113.16231374 -0.250541 106.319739 -2.984375 99.23046875 C-3.32769363 98.3478537 -3.67101227 97.46523865 -4.0247345 96.55587769 C-5.10406572 93.77926823 -6.17910473 91.00102181 -7.25390625 88.22265625 C-7.98473214 86.33972965 -8.71584974 84.45691625 -9.44726562 82.57421875 C-10.4754277 79.92757805 -11.50318118 77.28078803 -12.52861023 74.63308716 C-14.02116379 70.77965356 -15.52004271 66.92992746 -17.06640625 63.09765625 C-18.81523844 65.72090454 -19.92101459 67.96079373 -21.09765625 70.85693359 C-21.49146484 71.82158539 -21.88527344 72.78623718 -22.29101562 73.78012085 C-22.71189453 74.82076691 -23.13277344 75.86141296 -23.56640625 76.93359375 C-24.00275391 78.00509674 -24.43910156 79.07659973 -24.88867188 80.18057251 C-26.28436919 83.61000822 -27.67542234 87.04130644 -29.06640625 90.47265625 C-30.00360504 92.77746625 -30.94110149 95.08215524 -31.87890625 97.38671875 C-36.49681975 108.73243402 -36.49681975 108.73243402 -41.06640625 120.09765625 C-44.36640625 120.09765625 -47.66640625 120.09765625 -51.06640625 120.09765625 C-44.45136715 102.52645863 -37.44190375 85.14115571 -30.28755188 67.7844696 C-29.77203011 66.53377434 -29.77203011 66.53377434 -29.24609375 65.2578125 C-28.90132492 64.42155838 -28.55655609 63.58530426 -28.20133972 62.72370911 C-23.82146592 52.09030445 -19.51247707 41.42819214 -15.20239258 30.76635742 C-13.49422874 26.54189731 -11.78163143 22.31925378 -10.06640625 18.09765625 C-9.74826965 17.3135437 -9.43013306 16.52943115 -9.10235596 15.72155762 C-8.13614545 13.34316575 -7.16624538 10.96631115 -6.1953125 8.58984375 C-5.89656723 7.8533963 -5.59782196 7.11694885 -5.2900238 6.35818481 C-2.73718809 0.12935672 -2.73718809 0.12935672 0 0 Z " fill="#020202" transform="translate(323.06640625,342.90234375)"/>
<path d="M0 0 C7.44066182 -0.23236097 14.88053437 -0.4097024 22.32409763 -0.51812172 C25.78125759 -0.57017916 29.23592527 -0.64068229 32.69165039 -0.75439453 C36.67042483 -0.88448873 40.64821369 -0.93247153 44.62890625 -0.9765625 C45.86145645 -1.02817535 47.09400665 -1.07978821 48.36390686 -1.13296509 C56.80294429 -1.1384568 56.80294429 -1.1384568 60.30163574 2.18896484 C62.08088201 4.72157529 63.55632802 7.2660873 65 10 C71.58385959 18.32340778 79.86576775 26.81096129 90.75 28.625 C91.8225 28.74875 92.895 28.8725 94 29 C94 31.31 94 33.62 94 36 C50.77 36 7.54 36 -37 36 C-37 33.69 -37 31.38 -37 29 C-36.10539062 28.89042969 -35.21078125 28.78085937 -34.2890625 28.66796875 C-18.51312065 26.78549277 -18.51312065 26.78549277 -5 19 C-1.9249062 14.49877574 -0.96418593 10.18862642 -0.45678711 4.8269043 C-0.37021347 3.92376999 -0.28363983 3.02063568 -0.19444275 2.09013367 C-0.13027664 1.40038956 -0.06611053 0.71064545 0 0 Z " fill="#020202" transform="translate(391,624)"/>
<path d="M0 0 C18.81 0 37.62 0 57 0 C57.99 2.97 58.98 5.94 60 9 C63.39155858 17.29047654 68.35576954 22.5788751 76.5625 26.375 C83.12751817 28.77909116 90.0810162 28.81549377 97 29 C97 31.31 97 33.62 97 36 C51.79 36 6.58 36 -40 36 C-40 33.69 -40 31.38 -40 29 C-39.03320312 28.97421875 -38.06640625 28.9484375 -37.0703125 28.921875 C-25.87412865 28.43412046 -17.07034915 26.8451994 -8.68359375 18.9140625 C-3.88603199 13.45975794 -2.28365104 6.85095313 0 0 Z " fill="#020202" transform="translate(725,624)"/>
<path d="M0 0 C22.70550162 0 22.70550162 0 28 4 C32.43649507 8.43649507 33.14992444 12.26558144 33.3125 18.375 C33.27777792 23.56247813 32.50504796 26.1856831 29 30 C28.34 30 27.68 30 27 30 C27 30.66 27 31.32 27 32 C28.051875 32.0309375 28.051875 32.0309375 29.125 32.0625 C33.36757751 33.44594919 35.42179573 36.46720744 38 40 C40.0818651 44.16373021 39.32725118 49.45418359 39 54 C37.38007705 58.77450976 35.28440413 61.3564315 31 64 C21 67 21 67 0 67 C0 44.89 0 22.78 0 0 Z " fill="#050505" transform="translate(110,506)"/>
<path d="M0 0 C0.18103271 0.81476807 0.36206543 1.62953613 0.54858398 2.46899414 C0.79938721 3.54270264 1.05019043 4.61641113 1.30859375 5.72265625 C1.55150146 6.78492432 1.79440918 7.84719238 2.04467773 8.94165039 C4.12731306 15.60895751 8.68306909 19.54964205 14.6875 22.8125 C22.3699482 26.29068158 30.64893009 28.05101478 39 29 C39 31.31 39 33.62 39 36 C6 36 -27 36 -61 36 C-61 33.69 -61 31.38 -61 29 C-60.1646875 28.77957031 -60.1646875 28.77957031 -59.3125 28.5546875 C-49.72266391 25.73605324 -42.39485645 19.59859413 -36 12 C-35.23042969 10.42605469 -35.23042969 10.42605469 -34.4453125 8.8203125 C-27.36824309 -4.54748528 -13.27899017 -1.08263952 0 0 Z " fill="#020202" transform="translate(227,624)"/>
<path d="M0 0 C3.3 0 6.6 0 10 0 C10 60.72 10 121.44 10 184 C6.7 184 3.4 184 0 184 C0 123.28 0 62.56 0 0 Z " fill="#000000" transform="translate(535,279)"/>
<path d="M0 0 C23.00643087 0 23.00643087 0 29 4 C34.41832829 9.55048264 34.35062857 13.96233853 34.2734375 21.50390625 C33.8966231 26.32174755 33.12176616 28.31791684 30 32 C27.72397592 33.66345147 25.57113451 34.76034586 23 36 C21.66572836 36.66478675 20.33216272 37.33099723 19 38 C19.35715088 38.48766846 19.71430176 38.97533691 20.08227539 39.4777832 C26.66660511 48.48495956 33.21545551 57.45024292 39 67 C31.37444296 68.00982005 31.37444296 68.00982005 28.37109375 65.80322266 C26.92311382 64.04443362 25.70468271 62.246092 24.5 60.3125 C24.04568604 59.6407373 23.59137207 58.96897461 23.12329102 58.27685547 C22.18673842 56.88761673 21.26299167 55.48966171 20.35205078 54.08349609 C18.65649205 51.47065784 16.89776801 48.90534029 15.125 46.34448242 C13.99613251 44.709899 12.88619001 43.06229329 11.77734375 41.4140625 C10.2259255 38.92332886 10.2259255 38.92332886 8 38 C8 47.57 8 57.14 8 67 C5.36 67 2.72 67 0 67 C0 44.89 0 22.78 0 0 Z " fill="#0B0B0B" transform="translate(666,506)"/>
<path d="M0 0 C2.79038262 1.39519131 3.03347705 2.97529901 4.24316406 5.83251953 C4.68412415 6.86514923 5.12508423 7.89777893 5.57940674 8.96170044 C6.29033478 10.65515091 6.29033478 10.65515091 7.015625 12.3828125 C7.5090741 13.54440887 8.00252319 14.70600525 8.51092529 15.90280151 C9.5597093 18.37487024 10.60598056 20.84782247 11.64794922 23.32275391 C12.96477883 26.45053758 14.28842186 29.57537039 15.61490631 32.69906998 C20.87248089 45.08112708 26.10291029 57.47014995 31 70 C28.03 70 25.06 70 22 70 C20.82905995 67.2100561 19.66309073 64.41821403 18.5 61.625 C18.16613281 60.8309375 17.83226562 60.036875 17.48828125 59.21875 C17.01455078 58.07792969 17.01455078 58.07792969 16.53125 56.9140625 C16.23798828 56.2123291 15.94472656 55.5105957 15.64257812 54.78759766 C15 53 15 53 15 51 C5.43 51.33 -4.14 51.66 -14 52 C-17.96 60.91 -17.96 60.91 -22 70 C-24.64 70 -27.28 70 -30 70 C-27.99452686 63.58914985 -25.57553078 57.47558 -22.83203125 51.34765625 C-22.23427132 49.99914833 -22.23427132 49.99914833 -21.62443542 48.62339783 C-20.35765101 45.76803169 -19.0851987 42.91523415 -17.8125 40.0625 C-16.978137 38.18441295 -16.14414983 36.3061589 -15.31054688 34.42773438 C-13.27522557 29.84372734 -11.23533681 25.26177109 -9.19390869 20.68048096 C-7.25551566 16.32853541 -5.32114104 11.97480537 -3.38671875 7.62109375 C-2.72616111 6.1346818 -2.06559855 4.64827203 -1.4050293 3.16186523 C-0.94136963 2.11844971 -0.47770996 1.07503418 0 0 Z " fill="#090909" transform="translate(51,503)"/>
<path d="M0 0 C0.66 0 1.32 0 2 0 C2.27482208 0.64542755 2.54964417 1.2908551 2.83279419 1.95584106 C5.4502367 8.1028989 8.06783853 14.24988888 10.68560982 20.39680672 C12.29429194 24.17425032 13.90284556 27.9517486 15.51128006 31.72929764 C16.29166516 33.56198377 17.07219319 35.39460903 17.85272217 37.22723389 C18.86653632 39.60795212 19.87992869 41.98885 20.8928833 44.36993408 C22.94218106 49.18450789 24.99296271 53.99800118 27.08105469 58.79589844 C27.51440628 59.79398026 27.51440628 59.79398026 27.95651245 60.81222534 C28.6695205 62.45024675 29.38699816 64.08632078 30.10498047 65.72216797 C31 68 31 68 31 70 C28.36 70 25.72 70 23 70 C22.22816965 68.31295579 21.45759075 66.62533901 20.6875 64.9375 C20.25824219 63.99777344 19.82898438 63.05804687 19.38671875 62.08984375 C17.8850908 58.74396287 16.4446587 55.3708703 15 52 C5.43 51.67 -4.14 51.34 -14 51 C-14.99 53.97 -15.98 56.94 -17 60 C-17.84851455 61.87629274 -18.73584671 63.7363545 -19.6875 65.5625 C-20.12449219 66.40941406 -20.56148437 67.25632812 -21.01171875 68.12890625 C-21.33785156 68.74636719 -21.66398438 69.36382813 -22 70 C-24.64 70 -27.28 70 -30 70 C-24.70738532 56.89814701 -19.06046802 43.97012007 -13.3125 31.0625 C-12.04419007 28.2129835 -10.77661707 25.36315013 -9.51127625 22.51231384 C-8.7327753 20.75840758 -7.95264507 19.00522312 -7.17048645 17.25294495 C-4.64084037 11.55490798 -2.27838062 5.80294201 0 0 Z " fill="#080808" transform="translate(759,503)"/>
<path d="M0 0 C0.66 0 1.32 0 2 0 C2.44988281 1.14573486 2.89976562 2.29146973 3.36328125 3.47192383 C8.9697347 17.66288773 14.95171089 31.6802264 21 45.6875 C22.44541839 49.03745553 23.89006907 52.38773327 25.33251953 55.7389679 C26.2210223 57.80304587 27.11126154 59.8663774 28.00341797 61.92887878 C28.59533936 63.30346001 28.59533936 63.30346001 29.19921875 64.70581055 C29.54815186 65.51374557 29.89708496 66.3216806 30.2565918 67.15409851 C31 69 31 69 31 70 C28.36 70 25.72 70 23 70 C22.22377806 68.5027814 21.4543539 67.00203832 20.6875 65.5 C20.25824219 64.6646875 19.82898438 63.829375 19.38671875 62.96875 C17.72019336 59.40097734 16.38265566 55.68708177 15 52 C5.43 52 -4.14 52 -14 52 C-16.26142851 57.54855996 -16.26142851 57.54855996 -18.51733398 63.09936523 C-18.79907471 63.78716064 -19.08081543 64.47495605 -19.37109375 65.18359375 C-19.65911865 65.89056396 -19.94714355 66.59753418 -20.24389648 67.32592773 C-21 69 -21 69 -22 70 C-24.67058851 70.14115161 -27.32432238 70.04247107 -30 70 C-27.75862221 62.64796293 -24.73982009 55.75257332 -21.53106689 48.7817688 C-19.96838919 45.38540538 -18.42134598 41.98194875 -16.875 38.578125 C-16.55681305 37.87812881 -16.2386261 37.17813263 -15.91079712 36.45692444 C-12.39345518 28.6973459 -9.00031899 20.88468479 -5.625 13.0625 C-5.33860657 12.399086 -5.05221313 11.735672 -4.75714111 11.05215454 C-3.16806091 7.36954701 -1.58239213 3.68548595 0 0 Z " fill="#080808" transform="translate(342,503)"/>
<path d="M0 0 C7.86599314 6.74227983 7.86599314 6.74227983 10.54296875 9.6640625 C11.43242187 10.62602539 11.43242187 10.62602539 12.33984375 11.60742188 C12.94957031 12.27322266 13.55929688 12.93902344 14.1875 13.625 C18.86695852 18.68198456 23.59311952 23.66308305 28.5 28.5 C31.63636843 31.59503328 34.69809003 34.71053088 37.5625 38.0625 C42.11661929 43.27903664 47.1034575 48.1034575 52 53 C52.33 36.5 52.66 20 53 3 C55.31 3 57.62 3 60 3 C60 25.77 60 48.54 60 72 C52.13281039 65.25669462 52.13281039 65.25669462 49.203125 62.08203125 C48.55980225 61.39036865 47.91647949 60.69870605 47.25366211 59.98608398 C46.59245361 59.26880127 45.93124512 58.55151855 45.25 57.8125 C40.55744496 52.76828824 35.83969165 47.77866852 30.9375 42.9375 C27.98569172 40.0208323 25.13797892 37.08805874 22.4375 33.9375 C18.19335532 29.07602519 13.56326097 24.56326097 9 20 C8.67 36.5 8.34 53 8 70 C5.36 70 2.72 70 0 70 C0 46.9 0 23.8 0 0 Z " fill="#090909" transform="translate(223,503)"/>
<path d="M0 0 C2.31 0 4.62 0 7 0 C7 8.91 7 17.82 7 27 C18.55 27 30.1 27 42 27 C42 18.09 42 9.18 42 0 C44.31 0 46.62 0 49 0 C49 22.11 49 44.22 49 67 C46.69 67 44.38 67 42 67 C42 56.11 42 45.22 42 34 C30.45 34 18.9 34 7 34 C7 44.89 7 55.78 7 67 C4.69 67 2.38 67 0 67 C0 44.89 0 22.78 0 0 Z " fill="#000000" transform="translate(472,506)"/>
<path d="M0 0 C11.55 0 23.1 0 35 0 C35 2.31 35 4.62 35 7 C25.76 7 16.52 7 7 7 C7 13.6 7 20.2 7 27 C15.91 27 24.82 27 34 27 C34 29.31 34 31.62 34 34 C25.09 34 16.18 34 7 34 C7 42.58 7 51.16 7 60 C15.91 60 24.82 60 34 60 C34 62.31 34 64.62 34 67 C22.78 67 11.56 67 0 67 C0 44.89 0 22.78 0 0 Z " fill="#060606" transform="translate(895,506)"/>
<path d="M0 0 C4.75434346 1.61308082 7.7532347 4.18027612 11 8 C11 8.99 11 9.98 11 11 C8 13 8 13 6.125 12.875 C4 12 4 12 1.875 9.9375 C-2.31341124 7.11487503 -6.09134241 7.08264432 -11 8 C-14.2739971 9.85641749 -14.2739971 9.85641749 -16 13 C-16.83333333 16.5 -16.83333333 16.5 -16 20 C-12.29432493 24.47651206 -8.28164958 26.58517578 -3.125 28.9375 C10.99341698 35.68853676 10.99341698 35.68853676 14 43 C15.08330492 49.5880055 13.59188369 55.42891509 10 61 C6.10208615 65.23253755 1.88059665 68.59895308 -3.91796875 69.40625 C-10.82284546 69.6042393 -15.5793497 69.15840594 -21.12109375 64.8515625 C-24.06468621 61.95080818 -26.44893252 58.85038863 -28 55 C-28 53.68 -28 52.36 -28 51 C-24.535 50.505 -24.535 50.505 -21 50 C-20.52820313 50.81404297 -20.52820313 50.81404297 -20.046875 51.64453125 C-16.93497437 57.24344565 -16.93497437 57.24344565 -12 61 C-6.38125205 61.5437498 -2.84882895 61.15737699 2 58 C4.68043676 55.05087985 5.45101177 53.03667037 5.5 49.0625 C5.5309375 48.22847656 5.561875 47.39445313 5.59375 46.53515625 C4.71327134 42.77574408 2.98314408 41.41455526 0 39 C-2.71743326 37.54343052 -5.53047972 36.37178842 -8.375 35.1875 C-14.96413083 32.27991306 -20.23722642 29.42807154 -24 23 C-25.54033038 18.37900885 -25.5385555 14.55230704 -23.9375 9.9375 C-17.67403533 0.44127937 -10.89323841 -0.73064404 0 0 Z " fill="#0A0A0A" transform="translate(1042,505)"/>
<path d="M0 0 C4.75434346 1.61308082 7.7532347 4.18027612 11 8 C11 8.99 11 9.98 11 11 C8 13 8 13 6.125 12.875 C4 12 4 12 1.875 9.9375 C-2.31341124 7.11487503 -6.09134241 7.08264432 -11 8 C-14.2739971 9.85641749 -14.2739971 9.85641749 -16 13 C-16.83333333 16.5 -16.83333333 16.5 -16 20 C-12.29432493 24.47651206 -8.28164958 26.58517578 -3.125 28.9375 C10.99341698 35.68853676 10.99341698 35.68853676 14 43 C15.08330492 49.5880055 13.59188369 55.42891509 10 61 C6.10208615 65.23253755 1.88059665 68.59895308 -3.91796875 69.40625 C-10.82284546 69.6042393 -15.5793497 69.15840594 -21.12109375 64.8515625 C-24.06468621 61.95080818 -26.44893252 58.85038863 -28 55 C-28 53.68 -28 52.36 -28 51 C-24.535 50.505 -24.535 50.505 -21 50 C-20.52820313 50.81404297 -20.52820313 50.81404297 -20.046875 51.64453125 C-16.93497437 57.24344565 -16.93497437 57.24344565 -12 61 C-6.38125205 61.5437498 -2.84882895 61.15737699 2 58 C4.68043676 55.05087985 5.45101177 53.03667037 5.5 49.0625 C5.5309375 48.22847656 5.561875 47.39445313 5.59375 46.53515625 C4.71327134 42.77574408 2.98314408 41.41455526 0 39 C-2.71743326 37.54343052 -5.53047972 36.37178842 -8.375 35.1875 C-14.96413083 32.27991306 -20.23722642 29.42807154 -24 23 C-25.54033038 18.37900885 -25.5385555 14.55230704 -23.9375 9.9375 C-17.67403533 0.44127937 -10.89323841 -0.73064404 0 0 Z " fill="#0A0A0A" transform="translate(426,505)"/>
<path d="M0 0 C2.97 0 5.94 0 9 0 C14.94 15.84 20.88 31.68 27 48 C28.68663511 45.47004733 29.64725689 43.54662388 30.67993164 40.74389648 C30.99688492 39.88968613 31.3138382 39.03547577 31.64039612 38.15538025 C31.97691696 37.2365657 32.31343781 36.31775116 32.66015625 35.37109375 C33.0100914 34.42565201 33.36002655 33.48021027 33.7205658 32.50611877 C34.8382155 29.48458728 35.95057387 26.46114194 37.0625 23.4375 C38.17894445 20.41064707 39.29648067 17.38420243 40.41514587 14.35816956 C41.11112187 12.47456055 41.80563016 10.59040848 42.49855042 8.70567322 C42.96925209 7.42908592 42.96925209 7.42908592 43.44946289 6.12670898 C43.72544815 5.37630844 44.00143341 4.6259079 44.28578186 3.85276794 C45 2 45 2 46 0 C48.64 0 51.28 0 54 0 C51.92059549 7.33678226 49.42089316 14.44453545 46.69140625 21.5625 C46.28341293 22.63443604 45.87541962 23.70637207 45.45506287 24.81079102 C44.16082399 28.20845602 42.86164404 31.60420799 41.5625 35 C40.69435738 37.27853 39.82651618 39.55717487 38.95898438 41.8359375 C38.12006165 44.03656128 37.28087763 46.23708546 36.44140625 48.4375 C36.05586075 49.44820557 35.67031525 50.45891113 35.27308655 51.50024414 C32.90463791 57.6898088 30.48048344 63.85447078 28 70 C24.65556471 68.32778236 24.13136812 64.52955555 22.91015625 61.171875 C22.60944214 60.36292786 22.30872803 59.55398071 21.99890137 58.72052002 C21.01363082 56.06602652 20.03814435 53.40804485 19.0625 50.75 C18.3893761 48.9320006 17.71546285 47.11429327 17.04077148 45.296875 C16.01771803 42.54055297 14.99524903 39.784028 13.97547913 37.02648926 C10.8838066 28.66671165 7.73311612 20.33009409 4.5625 12 C3.86362671 10.16066895 3.86362671 10.16066895 3.15063477 8.28417969 C2.10120062 5.52248967 1.05103317 2.76108176 0 0 Z " fill="#090909" transform="translate(812,506)"/>
<path d="M0 0 C13.2 0 26.4 0 40 0 C40 2.31 40 4.62 40 7 C34.72 7 29.44 7 24 7 C24 26.8 24 46.6 24 67 C21.36 67 18.72 67 16 67 C16 47.2 16 27.4 16 7 C10.72 7 5.44 7 0 7 C0 4.69 0 2.38 0 0 Z " fill="#0E0E0E" transform="translate(598,506)"/>
<path d="M0 0 C3.3 0 6.6 0 10 0 C10 24.75 10 49.5 10 75 C6.7 75 3.4 75 0 75 C0 50.25 0 25.5 0 0 Z " fill="#000000" transform="translate(535,624)"/>
<path d="M0 0 C2.31 0 4.62 0 7 0 C7 19.8 7 39.6 7 60 C13.27 60 19.54 60 26 60 C26 62.31 26 64.62 26 67 C17.42 67 8.84 67 0 67 C0 44.89 0 22.78 0 0 Z " fill="#010101" transform="translate(963,506)"/>
<path d="M0 0 C2.64 0 5.28 0 8 0 C8 22.11 8 44.22 8 67 C5.36 67 2.72 67 0 67 C0 44.89 0 22.78 0 0 Z " fill="#111111" transform="translate(181,506)"/>
<path d="M0 0 C2.35125 -0.061875 4.7025 -0.12375 7.125 -0.1875 C7.85348145 -0.21481201 8.58196289 -0.24212402 9.33251953 -0.27026367 C15.24709105 -0.34485754 19.11022221 1.2096842 23.375 5.25 C25.47596251 8.80547501 25.50916975 10.92664198 25 15 C22.85448348 19.96856457 19.67378598 21.66310701 15 24 C12.44612508 24.07173806 9.92723239 24.09287732 7.375 24.0625 C4.94125 24.041875 2.5075 24.02125 0 24 C0 16.08 0 8.16 0 0 Z " fill="#F9F9F9" transform="translate(117,542)"/>
<path d="M0 0 C12.54285714 0 12.54285714 0 17 4 C19.82493725 8.23740587 19.7788872 12.02465933 19 17 C16.25946895 20.75844258 13.51125021 22.87218745 9 24 C6.03 24 3.06 24 0 24 C0 16.08 0 8.16 0 0 Z " fill="#FAFAFA" transform="translate(674,513)"/>
<path d="M0 0 C12.46024735 -0.41077739 12.46024735 -0.41077739 17 3 C19.48523949 6.72785924 19.52216806 9.68395463 19 14 C17.8125 17.375 17.8125 17.375 16 20 C11 22 11 22 0 22 C0 14.74 0 7.48 0 0 Z " fill="#F7F7F7" transform="translate(117,513)"/>
<path d="M0 0 C0.66 0 1.32 0 2 0 C3.67239921 3.95593578 5.33694382 7.9151284 7 11.875 C7.47695313 13.00292969 7.95390625 14.13085938 8.4453125 15.29296875 C9.12207031 16.90751953 9.12207031 16.90751953 9.8125 18.5546875 C10.23144531 19.54968262 10.65039062 20.54467773 11.08203125 21.56982422 C12 24 12 24 12 26 C4.74 26 -2.52 26 -10 26 C-9.23036421 22.15182105 -8.46186108 19.42652615 -6.93359375 15.91796875 C-6.53076172 14.98662109 -6.12792969 14.05527344 -5.71289062 13.09570312 C-5.29201172 12.13599609 -4.87113281 11.17628906 -4.4375 10.1875 C-4.01275391 9.20845703 -3.58800781 8.22941406 -3.15039062 7.22070312 C-2.10460494 4.81187093 -1.05435216 2.40509197 0 0 Z " fill="#F5F5F5" transform="translate(759,521)"/>
<path d="M0 0 C2.74459458 2.38999197 3.91284377 4.71211005 5.26171875 8.0703125 C5.65810547 9.04871094 6.05449219 10.02710938 6.46289062 11.03515625 C7.06907227 12.56462891 7.06907227 12.56462891 7.6875 14.125 C8.10322266 15.15238281 8.51894531 16.17976562 8.94726562 17.23828125 C12 24.82750924 12 24.82750924 12 26 C4.41 26 -3.18 26 -11 26 C-9.741875 22.82375 -8.48375 19.6475 -7.1875 16.375 C-6.79715576 15.3854834 -6.40681152 14.3959668 -6.00463867 13.37646484 C-4.1844098 8.8044048 -2.29330974 4.35511818 0 0 Z " fill="#F6F6F6" transform="translate(342,521)"/>
<path d="M0 0 C2.78223111 1.39111555 2.99685455 2.94746506 4.1640625 5.8046875 C4.56367187 6.78050781 4.96328125 7.75632812 5.375 8.76171875 C5.7875 9.78910156 6.2 10.81648437 6.625 11.875 C7.04523437 12.89464844 7.46546875 13.91429687 7.8984375 14.96484375 C11 22.60797991 11 22.60797991 11 26 C3.74 26 -3.52 26 -11 26 C-8.99389364 19.98168092 -6.94115188 14.2629682 -4.375 8.5 C-4.06304687 7.78585937 -3.75109375 7.07171875 -3.4296875 6.3359375 C-1.13632015 1.13632015 -1.13632015 1.13632015 0 0 Z " fill="#F6F6F6" transform="translate(51,521)"/>
</svg>
